<!DOCTYPE svg PUBLIC "-//W3C//DTD SVG 1.1//EN" "http://www.w3.org/Graphics/SVG/1.1/DTD/svg11.dtd">
<!-- Uploaded to: SVG Repo, www.svgrepo.com, Transformed by: SVG Repo Mixer Tools -->
<svg width="201px" height="201px" viewBox="0 0 24.00 24.00" fill="none" xmlns="http://www.w3.org/2000/svg" stroke="#030303">
<g id="SVGRepo_bgCarrier" stroke-width="0"/>
<g id="SVGRepo_tracerCarrier" stroke-linecap="round" stroke-linejoin="round" stroke="#030303" stroke-width="4.8"> <path opacity="0.4" d="M7.5 7.67001V6.70001C7.5 4.45001 9.31 2.24001 11.56 2.03001C14.24 1.77001 16.5 3.88001 16.5 6.51001V7.89001" stroke="#000000" stroke-width="1.248" stroke-miterlimit="10" stroke-linecap="round" stroke-linejoin="round"/> <path d="M9.0008 22H15.0008C19.0208 22 19.7408 20.39 19.9508 18.43L20.7008 12.43C20.9708 9.99 20.2708 8 16.0008 8H8.0008C3.7308 8 3.0308 9.99 3.3008 12.43L4.0508 18.43C4.2608 20.39 4.9808 22 9.0008 22Z" stroke="#000000" stroke-width="1.248" stroke-miterlimit="10" stroke-linecap="round" stroke-linejoin="round"/> <path opacity="0.4" d="M15.4945 12H15.5035" stroke="#000000" stroke-width="1.248" stroke-linecap="round" stroke-linejoin="round"/> <path opacity="0.4" d="M8.49451 12H8.50349" stroke="#000000" stroke-width="1.248" stroke-linecap="round" stroke-linejoin="round"/> </g>
<g id="SVGRepo_iconCarrier"> <path opacity="0.4" d="M7.5 7.67001V6.70001C7.5 4.45001 9.31 2.24001 11.56 2.03001C14.24 1.77001 16.5 3.88001 16.5 6.51001V7.89001" stroke="#000000" stroke-width="1.248" stroke-miterlimit="10" stroke-linecap="round" stroke-linejoin="round"/> <path d="M9.0008 22H15.0008C19.0208 22 19.7408 20.39 19.9508 18.43L20.7008 12.43C20.9708 9.99 20.2708 8 16.0008 8H8.0008C3.7308 8 3.0308 9.99 3.3008 12.43L4.0508 18.43C4.2608 20.39 4.9808 22 9.0008 22Z" stroke="#000000" stroke-width="1.248" stroke-miterlimit="10" stroke-linecap="round" stroke-linejoin="round"/> <path opacity="0.4" d="M15.4945 12H15.5035" stroke="#000000" stroke-width="1.248" stroke-linecap="round" stroke-linejoin="round"/> <path opacity="0.4" d="M8.49451 12H8.50349" stroke="#000000" stroke-width="1.248" stroke-linecap="round" stroke-linejoin="round"/> </g>
</svg>